SplineFontDB: 3.0
FontName: hajime
FullName: hajime
FamilyName: hajime
Weight: Medium
Copyright: zo
Version: 1.0
ItalicAngle: 16.7
UnderlinePosition: -100
UnderlineWidth: 50
Ascent: 320
Descent: 192
InvalidEm: 0
sfntRevision: 0x00010000
woffMajor: 1
woffMinor: 0
LayerCount: 2
Layer: 0 1 "Back" 1
Layer: 1 1 "Fore" 0
XUID: [1021 235 626921049 722051]
StyleMap: 0x0000
FSType: 0
OS2Version: 4
OS2_WeightWidthSlopeOnly: 0
OS2_UseTypoMetrics: 1
CreationTime: 1516900385
ModificationTime: 1518876226
PfmFamily: 81
TTFWeight: 500
TTFWidth: 5
LineGap: 256
VLineGap: 0
Panose: 2 0 6 3 0 0 0 0 0 0
OS2TypoAscent: 704
OS2TypoAOffset: 0
OS2TypoDescent: -256
OS2TypoDOffset: 0
OS2TypoLinegap: 256
OS2WinAscent: 704
OS2WinAOffset: 0
OS2WinDescent: 256
OS2WinDOffset: 0
HheadAscent: 704
HheadAOffset: 0
HheadDescent: -256
HheadDOffset: 0
OS2SubXSize: 650
OS2SubYSize: 700
OS2SubXOff: 0
OS2SubYOff: 140
OS2SupXSize: 650
OS2SupYSize: 700
OS2SupXOff: 0
OS2SupYOff: 480
OS2StrikeYSize: 49
OS2StrikeYPos: 258
OS2CapHeight: 640
OS2XHeight: 384
OS2Vendor: 'XXXX'
OS2CodePages: 00000001.00000000
OS2UnicodeRanges: 00000001.00000000.00000000.00000000
Lookup: 258 0 0 "'kern' Horizontal Kerning lookup 0" { "'kern' Horizontal Kerning lookup 0 subtable"  } [' RQD' ('DFLT' <'dflt' > ) 'kern' ('DFLT' <'dflt' > ) ]
MarkAttachClasses: 1
DEI: 91125
ShortTable: cvt  2
  17
  324
EndShort
ShortTable: maxp 16
  1
  0
  43
  104
  4
  0
  0
  1
  0
  0
  0
  0
  0
  0
  0
  0
EndShort
LangName: 1033 "" "" "" "" "" "1.0" "" "" "" "zo" "" "" "www.zombect.ro"
Encoding: UnicodeBmp
Compacted: 1
UnicodeInterp: none
NameList: Adobe Glyph List
DisplaySize: -48
AntiAlias: 0
FitToEm: 1
WinInfo: 0 12 14
BeginPrivate: 0
EndPrivate
TeXData: 1 0 0 524288 262144 174762 0 1048576 174762 783286 444596 497025 792723 393216 433062 380633 303038 157286 324010 404750 52429 2506097 1059062 262144
BeginChars: 65539 40

StartChar: exclam
Encoding: 33 33 1
Width: 256
GlyphClass: 2
Flags: W
LayerCount: 2
Fore
SplineSet
0 192 m 1,0,1
 0 320 0 320 0 576 c 1,2,3
 21 576 21 576 64 576 c 1,4,5
 64 597 64 597 64 640 c 1,6,7
 107 640 107 640 192 640 c 1,8,9
 192 555 192 555 192 384 c 1,10,11
 171 384 171 384 128 384 c 1,12,13
 128 341 128 341 128 256 c 1,14,15
 107 256 107 256 64 256 c 1,16,17
 64 235 64 235 64 192 c 1,18,19
 43 192 43 192 0 192 c 1,0,1
0 0 m 1,20,21
 0 43 0 43 0 128 c 1,22,23
 43 128 43 128 128 128 c 1,24,25
 128 85 128 85 128 0 c 1,26,27
 85 0 85 0 0 0 c 1,20,21
EndSplineSet
EndChar

StartChar: hyphen
Encoding: 45 45 2
Width: 384
GlyphClass: 2
Flags: W
LayerCount: 2
Fore
SplineSet
0 192 m 1,0,1
 0 213 0 213 0 256 c 1,2,3
 85 256 85 256 256 256 c 1,4,5
 256 235 256 235 256 192 c 1,6,7
 277 192 277 192 320 192 c 1,8,9
 320 171 320 171 320 128 c 1,10,11
 235 128 235 128 64 128 c 1,12,13
 64 149 64 149 64 192 c 1,14,15
 43 192 43 192 0 192 c 1,0,1
EndSplineSet
EndChar

StartChar: zero
Encoding: 48 48 3
Width: 448
GlyphClass: 2
Flags: W
LayerCount: 2
Fore
SplineSet
64 128 m 1,0,1
 85 128 85 128 128 128 c 1,2,3
 128 107 128 107 128 64 c 1,4,5
 171 64 171 64 256 64 c 1,6,7
 256 85 256 85 256 128 c 1,8,9
 277 128 277 128 320 128 c 1,10,11
 320 235 320 235 320 448 c 1,12,13
 277 448 277 448 192 448 c 1,14,15
 192 427 192 427 192 384 c 1,16,17
 171 384 171 384 128 384 c 1,18,19
 128 363 128 363 128 320 c 1,20,21
 107 320 107 320 64 320 c 1,22,23
 64 256 64 256 64 128 c 1,0,1
0 64 m 1,24,25
 0 192 0 192 0 448 c 1,26,27
 21 448 21 448 64 448 c 1,28,29
 64 491 64 491 64 576 c 1,30,31
 85 576 85 576 128 576 c 1,32,33
 128 597 128 597 128 640 c 1,34,35
 192 640 192 640 320 640 c 1,36,37
 320 619 320 619 320 576 c 1,38,39
 341 576 341 576 384 576 c 1,40,41
 384 427 384 427 384 128 c 1,42,43
 363 128 363 128 320 128 c 1,44,45
 320 107 320 107 320 64 c 1,46,47
 299 64 299 64 256 64 c 1,48,49
 256 43 256 43 256 0 c 1,50,51
 192 0 192 0 64 0 c 1,52,53
 64 21 64 21 64 64 c 1,54,55
 43 64 43 64 0 64 c 1,24,25
EndSplineSet
EndChar

StartChar: one
Encoding: 49 49 4
Width: 576
GlyphClass: 2
Flags: W
LayerCount: 2
Fore
SplineSet
0 320 m 1,0,1
 0 341 0 341 0 384 c 1,2,3
 43 384 43 384 128 384 c 1,4,5
 128 405 128 405 128 448 c 1,6,7
 149 448 149 448 192 448 c 1,8,9
 192 469 192 469 192 512 c 1,10,11
 213 512 213 512 256 512 c 1,12,13
 256 533 256 533 256 576 c 1,14,15
 277 576 277 576 320 576 c 1,16,17
 320 597 320 597 320 640 c 1,18,19
 341 640 341 640 384 640 c 1,20,21
 384 576 384 576 384 448 c 1,22,23
 363 448 363 448 320 448 c 1,24,25
 320 384 320 384 320 256 c 1,26,27
 299 256 299 256 256 256 c 1,28,29
 256 213 256 213 256 128 c 1,30,31
 320 128 320 128 448 128 c 1,32,33
 448 107 448 107 448 64 c 1,34,35
 469 64 469 64 512 64 c 1,36,37
 512 43 512 43 512 0 c 1,38,39
 384 0 384 0 128 0 c 1,40,41
 128 21 128 21 128 64 c 1,42,43
 107 64 107 64 64 64 c 1,44,45
 64 85 64 85 64 128 c 1,46,47
 107 128 107 128 192 128 c 1,48,49
 192 192 192 192 192 320 c 1,50,51
 128 320 128 320 0 320 c 1,0,1
EndSplineSet
EndChar

StartChar: two
Encoding: 50 50 5
Width: 512
GlyphClass: 2
Flags: W
LayerCount: 2
Fore
SplineSet
0 0 m 1,0,1
 0 64 0 64 0 192 c 1,2,3
 21 192 21 192 64 192 c 1,4,5
 64 235 64 235 64 320 c 1,6,7
 85 320 85 320 128 320 c 1,8,9
 128 341 128 341 128 384 c 1,10,11
 149 384 149 384 192 384 c 1,12,13
 192 405 192 405 192 448 c 1,14,15
 213 448 213 448 256 448 c 1,16,17
 256 469 256 469 256 512 c 1,18,19
 192 512 192 512 64 512 c 1,20,21
 64 491 64 491 64 448 c 1,22,23
 43 448 43 448 0 448 c 1,24,25
 0 491 0 491 0 576 c 1,26,27
 21 576 21 576 64 576 c 1,28,29
 64 597 64 597 64 640 c 1,30,31
 149 640 149 640 320 640 c 1,32,33
 320 619 320 619 320 576 c 1,34,35
 341 576 341 576 384 576 c 1,36,37
 384 533 384 533 384 448 c 1,38,39
 363 448 363 448 320 448 c 1,40,41
 320 427 320 427 320 384 c 1,42,43
 277 384 277 384 192 384 c 1,44,45
 192 363 192 363 192 320 c 1,46,47
 171 320 171 320 128 320 c 1,48,49
 128 256 128 256 128 128 c 1,50,51
 171 128 171 128 256 128 c 1,52,53
 256 149 256 149 256 192 c 1,54,55
 277 192 277 192 320 192 c 1,56,57
 320 213 320 213 320 256 c 1,58,59
 363 256 363 256 448 256 c 1,60,61
 448 192 448 192 448 64 c 1,62,63
 384 64 384 64 256 64 c 1,64,65
 256 43 256 43 256 0 c 1,66,67
 171 0 171 0 0 0 c 1,0,1
EndSplineSet
EndChar

StartChar: three
Encoding: 51 51 6
Width: 448
GlyphClass: 2
Flags: W
LayerCount: 2
Fore
SplineSet
0 0 m 1,0,1
 0 21 0 21 0 64 c 1,2,3
 43 64 43 64 128 64 c 1,4,5
 128 85 128 85 128 128 c 1,6,7
 149 128 149 128 192 128 c 1,8,9
 192 149 192 149 192 192 c 1,10,11
 213 192 213 192 256 192 c 1,12,13
 256 213 256 213 256 256 c 1,14,15
 235 256 235 256 192 256 c 1,16,17
 192 277 192 277 192 320 c 1,18,19
 213 320 213 320 256 320 c 1,20,21
 256 341 256 341 256 384 c 1,22,23
 277 384 277 384 320 384 c 1,24,25
 320 363 320 363 320 320 c 1,26,27
 341 320 341 320 384 320 c 1,28,29
 384 256 384 256 384 128 c 1,30,31
 363 128 363 128 320 128 c 1,32,33
 320 107 320 107 320 64 c 1,34,35
 299 64 299 64 256 64 c 1,36,37
 256 43 256 43 256 0 c 1,38,39
 171 0 171 0 0 0 c 1,0,1
0 448 m 1,40,41
 0 491 0 491 0 576 c 1,42,43
 21 576 21 576 64 576 c 1,44,45
 64 597 64 597 64 640 c 1,46,47
 149 640 149 640 320 640 c 1,48,49
 320 619 320 619 320 576 c 1,50,51
 341 576 341 576 384 576 c 1,52,53
 384 512 384 512 384 384 c 1,54,55
 363 384 363 384 320 384 c 1,56,57
 320 427 320 427 320 512 c 1,58,59
 256 512 256 512 128 512 c 1,60,61
 128 491 128 491 128 448 c 1,62,63
 85 448 85 448 0 448 c 1,40,41
EndSplineSet
EndChar

StartChar: four
Encoding: 52 52 7
Width: 576
GlyphClass: 2
Flags: W
LayerCount: 2
Fore
SplineSet
0 128 m 1,0,1
 0 171 0 171 0 256 c 1,2,3
 21 256 21 256 64 256 c 1,4,5
 64 277 64 277 64 320 c 1,6,7
 85 320 85 320 128 320 c 1,8,9
 128 363 128 363 128 448 c 1,10,11
 149 448 149 448 192 448 c 1,12,13
 192 533 192 533 192 704 c 1,14,15
 213 704 213 704 256 704 c 1,16,17
 256 683 256 683 256 640 c 1,18,19
 277 640 277 640 320 640 c 1,20,21
 320 533 320 533 320 320 c 1,22,23
 341 320 341 320 384 320 c 1,24,25
 384 299 384 299 384 256 c 1,26,27
 427 256 427 256 512 256 c 1,28,29
 512 235 512 235 512 192 c 1,30,31
 491 192 491 192 448 192 c 1,32,33
 448 171 448 171 448 128 c 1,34,35
 405 128 405 128 320 128 c 1,36,37
 320 85 320 85 320 0 c 1,38,39
 299 0 299 0 256 0 c 1,40,41
 256 21 256 21 256 64 c 1,42,43
 235 64 235 64 192 64 c 1,44,45
 192 85 192 85 192 128 c 1,46,47
 128 128 128 128 0 128 c 1,0,1
128 256 m 1,48,49
 171 256 171 256 256 256 c 1,50,51
 256 320 256 320 256 448 c 1,52,53
 235 448 235 448 192 448 c 1,54,55
 192 405 192 405 192 320 c 1,56,57
 171 320 171 320 128 320 c 1,58,59
 128 315 128 315 128 304 c 0,60,61
 128 288 128 288 128 256 c 1,48,49
EndSplineSet
EndChar

StartChar: five
Encoding: 53 53 8
Width: 448
GlyphClass: 2
Flags: W
LayerCount: 2
Fore
SplineSet
0 256 m 1,0,1
 0 363 0 363 0 576 c 1,2,3
 43 576 43 576 128 576 c 1,4,5
 128 597 128 597 128 640 c 1,6,7
 171 640 171 640 256 640 c 1,8,9
 256 661 256 661 256 704 c 1,10,11
 277 704 277 704 320 704 c 1,12,13
 320 640 320 640 320 512 c 1,14,15
 299 512 299 512 256 512 c 1,16,17
 256 491 256 491 256 448 c 1,18,19
 213 448 213 448 128 448 c 1,20,21
 128 405 128 405 128 320 c 1,22,23
 149 320 149 320 192 320 c 1,24,25
 192 299 192 299 192 256 c 1,26,27
 171 256 171 256 128 256 c 1,28,29
 128 235 128 235 128 192 c 1,30,31
 107 192 107 192 64 192 c 1,32,33
 64 213 64 213 64 256 c 1,34,35
 43 256 43 256 0 256 c 1,0,1
64 0 m 1,36,37
 64 21 64 21 64 64 c 1,38,39
 107 64 107 64 192 64 c 1,40,41
 192 85 192 85 192 128 c 1,42,43
 213 128 213 128 256 128 c 1,44,45
 256 192 256 192 256 320 c 1,46,47
 235 320 235 320 192 320 c 1,48,49
 192 341 192 341 192 384 c 1,50,51
 256 384 256 384 384 384 c 1,52,53
 384 299 384 299 384 128 c 1,54,55
 363 128 363 128 320 128 c 1,56,57
 320 107 320 107 320 64 c 1,58,59
 299 64 299 64 256 64 c 1,60,61
 256 43 256 43 256 0 c 1,62,63
 192 0 192 0 64 0 c 1,36,37
EndSplineSet
EndChar

StartChar: six
Encoding: 54 54 9
Width: 448
GlyphClass: 2
Flags: W
LayerCount: 2
Fore
SplineSet
0 128 m 1,0,1
 0 256 0 256 0 512 c 1,2,3
 21 512 21 512 64 512 c 1,4,5
 64 533 64 533 64 576 c 1,6,7
 85 576 85 576 128 576 c 1,8,9
 128 597 128 597 128 640 c 1,10,11
 192 640 192 640 320 640 c 1,12,13
 320 619 320 619 320 576 c 1,14,15
 341 576 341 576 384 576 c 1,16,17
 384 512 384 512 384 384 c 1,18,19
 363 384 363 384 320 384 c 1,20,21
 320 405 320 405 320 448 c 1,22,23
 299 448 299 448 256 448 c 1,24,25
 256 469 256 469 256 512 c 1,26,27
 213 512 213 512 128 512 c 1,28,29
 128 491 128 491 128 448 c 1,30,31
 107 448 107 448 64 448 c 1,32,33
 64 384 64 384 64 256 c 1,34,35
 85 256 85 256 128 256 c 1,36,37
 128 277 128 277 128 320 c 1,38,39
 192 320 192 320 320 320 c 1,40,41
 320 299 320 299 320 256 c 1,42,43
 341 256 341 256 384 256 c 1,44,45
 384 213 384 213 384 128 c 1,46,47
 363 128 363 128 320 128 c 1,48,49
 320 107 320 107 320 64 c 1,50,51
 299 64 299 64 256 64 c 1,52,53
 256 43 256 43 256 0 c 1,54,55
 213 0 213 0 128 0 c 1,56,57
 128 21 128 21 128 64 c 1,58,59
 107 64 107 64 64 64 c 1,60,61
 64 85 64 85 64 128 c 1,62,63
 43 128 43 128 0 128 c 1,0,1
128 128 m 1,64,65
 171 128 171 128 256 128 c 1,66,67
 256 171 256 171 256 256 c 1,68,69
 213 256 213 256 128 256 c 1,70,71
 128 249 128 249 128 234 c 0,72,73
 128 199 128 199 128 128 c 1,64,65
EndSplineSet
EndChar

StartChar: seven
Encoding: 55 55 10
Width: 512
GlyphClass: 2
Flags: W
LayerCount: 2
Fore
SplineSet
128 0 m 1,0,1
 128 52 128 52 128 157 c 0,2,3
 128 190 128 190 128 256 c 1,4,5
 149 256 149 256 192 256 c 1,6,7
 192 171 192 171 192 0 c 1,8,9
 171 0 171 0 128 0 c 1,0,1
0 448 m 1,10,11
 0 512 0 512 0 640 c 1,12,13
 21 640 21 640 64 640 c 1,14,15
 64 619 64 619 64 576 c 1,16,17
 171 576 171 576 384 576 c 1,18,19
 384 555 384 555 384 512 c 1,20,21
 405 512 405 512 448 512 c 1,22,23
 448 469 448 469 448 384 c 1,24,25
 427 384 427 384 384 384 c 1,26,27
 384 363 384 363 384 320 c 1,28,29
 363 320 363 320 320 320 c 1,30,31
 320 299 320 299 320 256 c 1,32,33
 277 256 277 256 192 256 c 1,34,35
 192 277 192 277 192 320 c 1,36,37
 171 320 171 320 128 320 c 1,38,39
 128 341 128 341 128 384 c 1,40,41
 192 384 192 384 320 384 c 1,42,43
 320 405 320 405 320 448 c 1,44,45
 213 448 213 448 0 448 c 1,10,11
EndSplineSet
EndChar

StartChar: eight
Encoding: 56 56 11
Width: 448
GlyphClass: 2
Flags: W
LayerCount: 2
Fore
SplineSet
0 64 m 1,0,1
 0 107 0 107 0 192 c 1,2,3
 21 192 21 192 64 192 c 1,4,5
 64 213 64 213 64 256 c 1,6,7
 85 256 85 256 128 256 c 1,8,9
 128 277 128 277 128 320 c 1,10,11
 171 320 171 320 256 320 c 1,12,13
 256 299 256 299 256 256 c 1,14,15
 235 256 235 256 192 256 c 1,16,17
 192 235 192 235 192 192 c 1,18,19
 171 192 171 192 128 192 c 1,20,21
 128 171 128 171 128 128 c 1,22,23
 171 128 171 128 256 128 c 1,24,25
 256 171 256 171 256 256 c 1,26,27
 299 256 299 256 384 256 c 1,28,29
 384 213 384 213 384 128 c 1,30,31
 363 128 363 128 320 128 c 1,32,33
 320 107 320 107 320 64 c 1,34,35
 299 64 299 64 256 64 c 1,36,37
 256 43 256 43 256 0 c 1,38,39
 192 0 192 0 64 0 c 1,40,41
 64 21 64 21 64 64 c 1,42,43
 43 64 43 64 0 64 c 1,0,1
64 320 m 1,44,45
 64 363 64 363 64 448 c 1,46,47
 85 448 85 448 128 448 c 1,48,49
 128 469 128 469 128 512 c 1,50,51
 149 512 149 512 192 512 c 1,52,53
 192 533 192 533 192 576 c 1,54,55
 256 576 256 576 384 576 c 1,56,57
 384 512 384 512 384 384 c 1,58,59
 363 384 363 384 320 384 c 1,60,61
 320 363 320 363 320 320 c 1,62,63
 299 320 299 320 256 320 c 1,64,65
 256 363 256 363 256 448 c 1,66,67
 213 448 213 448 128 448 c 1,68,69
 128 405 128 405 128 320 c 1,70,71
 107 320 107 320 64 320 c 1,44,45
EndSplineSet
EndChar

StartChar: nine
Encoding: 57 57 12
Width: 448
GlyphClass: 2
Flags: W
LayerCount: 2
Fore
SplineSet
128 0 m 1,0,1
 128 21 128 21 128 64 c 0,2,3
 128 85 128 85 128 128 c 1,4,5
 149 128 149 128 192 128 c 1,6,7
 192 85 192 85 192 0 c 1,8,9
 171 0 171 0 128 0 c 1,0,1
0 320 m 1,10,11
 0 384 0 384 0 512 c 1,12,13
 21 512 21 512 64 512 c 1,14,15
 64 533 64 533 64 576 c 1,16,17
 85 576 85 576 128 576 c 1,18,19
 128 597 128 597 128 640 c 1,20,21
 192 640 192 640 320 640 c 1,22,23
 320 619 320 619 320 576 c 1,24,25
 341 576 341 576 384 576 c 1,26,27
 384 512 384 512 384 384 c 1,28,29
 363 384 363 384 320 384 c 1,30,31
 320 341 320 341 320 256 c 1,32,33
 299 256 299 256 256 256 c 1,34,35
 256 213 256 213 256 128 c 1,36,37
 235 128 235 128 192 128 c 1,38,39
 192 171 192 171 192 256 c 1,40,41
 149 256 149 256 64 256 c 1,42,43
 64 277 64 277 64 320 c 1,44,45
 43 320 43 320 0 320 c 1,10,11
64 320 m 1,46,47
 128 320 128 320 256 320 c 1,48,49
 256 363 256 363 256 448 c 1,50,51
 213 448 213 448 128 448 c 1,52,53
 128 427 128 427 128 384 c 1,54,55
 107 384 107 384 64 384 c 1,56,57
 64 363 64 363 64 320 c 1,46,47
EndSplineSet
EndChar

StartChar: question
Encoding: 63 63 13
Width: 512
GlyphClass: 2
Flags: W
LayerCount: 2
Fore
SplineSet
128 192 m 1,0,1
 128 213 128 213 128 256 c 0,2,3
 128 277 128 277 128 320 c 1,4,5
 192 320 192 320 320 320 c 1,6,7
 320 299 320 299 320 256 c 1,8,9
 277 256 277 256 192 256 c 1,10,11
 192 235 192 235 192 192 c 1,12,13
 171 192 171 192 128 192 c 1,0,1
64 0 m 1,14,15
 64 43 64 43 64 128 c 1,16,17
 107 128 107 128 192 128 c 1,18,19
 192 85 192 85 192 0 c 1,20,21
 149 0 149 0 64 0 c 1,14,15
320 320 m 1,22,23
 320 341 320 341 320 384 c 1,24,25
 341 384 341 384 384 384 c 1,26,27
 384 363 384 363 384 320 c 1,28,29
 363 320 363 320 320 320 c 1,22,23
0 384 m 1,30,31
 0 448 0 448 0 576 c 1,32,33
 21 576 21 576 64 576 c 1,34,35
 64 597 64 597 64 640 c 1,36,37
 171 640 171 640 384 640 c 1,38,39
 384 619 384 619 384 576 c 1,40,41
 405 576 405 576 448 576 c 1,42,43
 448 512 448 512 448 384 c 1,44,45
 427 384 427 384 384 384 c 1,46,47
 384 427 384 427 384 512 c 1,48,49
 320 512 320 512 192 512 c 1,50,51
 192 491 192 491 192 448 c 1,52,53
 171 448 171 448 128 448 c 1,54,55
 128 427 128 427 128 384 c 1,56,57
 85 384 85 384 0 384 c 1,30,31
EndSplineSet
EndChar

StartChar: A
Encoding: 65 65 14
Width: 640
GlyphClass: 2
Flags: W
LayerCount: 2
Fore
SplineSet
0 64 m 1,0,1
 0 107 0 107 0 192 c 1,2,3
 21 192 21 192 64 192 c 1,4,5
 64 341 64 341 64 640 c 1,6,7
 85 640 85 640 128 640 c 1,8,9
 128 619 128 619 128 576 c 1,10,11
 149 576 149 576 192 576 c 1,12,13
 192 555 192 555 192 512 c 1,14,15
 213 512 213 512 256 512 c 1,16,17
 256 491 256 491 256 448 c 1,18,19
 277 448 277 448 320 448 c 1,20,21
 320 405 320 405 320 320 c 1,22,23
 341 320 341 320 384 320 c 1,24,25
 384 299 384 299 384 256 c 1,26,27
 405 256 405 256 448 256 c 1,28,29
 448 235 448 235 448 192 c 1,30,31
 469 192 469 192 512 192 c 1,32,33
 512 171 512 171 512 128 c 1,34,35
 533 128 533 128 576 128 c 1,36,37
 576 85 576 85 576 0 c 1,38,39
 533 0 533 0 448 0 c 1,40,41
 448 21 448 21 448 64 c 1,42,43
 427 64 427 64 384 64 c 1,44,45
 384 107 384 107 384 192 c 1,46,47
 299 192 299 192 128 192 c 1,48,49
 128 171 128 171 128 128 c 1,50,51
 149 128 149 128 192 128 c 1,52,53
 192 85 192 85 192 0 c 1,54,55
 149 0 149 0 64 0 c 1,56,57
 64 21 64 21 64 64 c 1,58,59
 43 64 43 64 0 64 c 1,0,1
192 320 m 1,60,61
 213 320 213 320 256 320 c 1,62,63
 256 341 256 341 256 384 c 1,64,65
 235 384 235 384 192 384 c 1,66,67
 192 363 192 363 192 320 c 1,60,61
EndSplineSet
EndChar

StartChar: B
Encoding: 66 66 15
Width: 768
GlyphClass: 2
Flags: W
LayerCount: 2
Fore
SplineSet
320 320 m 1,0,1
 384 320 384 320 512 320 c 1,2,3
 512 341 512 341 512 384 c 1,4,5
 448 384 448 384 320 384 c 1,6,7
 320 363 320 363 320 320 c 1,0,1
0 448 m 1,8,9
 0 469 0 469 0 512 c 1,10,11
 43 512 43 512 128 512 c 1,12,13
 128 533 128 533 128 576 c 1,14,15
 235 576 235 576 448 576 c 1,16,17
 448 555 448 555 448 512 c 1,18,19
 469 512 469 512 512 512 c 1,20,21
 512 491 512 491 512 448 c 1,22,23
 533 448 533 448 576 448 c 1,24,25
 576 405 576 405 576 320 c 1,26,27
 597 320 597 320 640 320 c 1,28,29
 640 299 640 299 640 256 c 1,30,31
 597 256 597 256 512 256 c 1,32,33
 512 235 512 235 512 192 c 1,34,35
 491 192 491 192 448 192 c 1,36,37
 448 171 448 171 448 128 c 1,38,39
 512 128 512 128 640 128 c 1,40,41
 640 107 640 107 640 64 c 1,42,43
 619 64 619 64 576 64 c 1,44,45
 576 43 576 43 576 0 c 1,46,47
 555 0 555 0 512 0 c 1,48,49
 512 -21 512 -21 512 -64 c 1,50,51
 448 -64 448 -64 320 -64 c 1,52,53
 320 -43 320 -43 320 0 c 1,54,55
 341 0 341 0 384 0 c 1,56,57
 384 43 384 43 384 128 c 1,58,59
 363 128 363 128 320 128 c 1,60,61
 320 149 320 149 320 192 c 1,62,63
 299 192 299 192 256 192 c 1,64,65
 256 213 256 213 256 256 c 1,66,67
 235 256 235 256 192 256 c 1,68,69
 192 299 192 299 192 384 c 1,70,71
 149 384 149 384 64 384 c 1,72,73
 64 405 64 405 64 448 c 1,74,75
 43 448 43 448 0 448 c 1,8,9
640 128 m 1,76,77
 640 171 640 171 640 256 c 1,78,79
 661 256 661 256 704 256 c 1,80,81
 704 213 704 213 704 128 c 1,82,83
 683 128 683 128 640 128 c 1,76,77
EndSplineSet
EndChar

StartChar: C
Encoding: 67 67 16
Width: 576
GlyphClass: 2
Flags: W
LayerCount: 2
Fore
SplineSet
0 128 m 1,0,1
 0 256 0 256 0 512 c 1,2,3
 21 512 21 512 64 512 c 1,4,5
 64 533 64 533 64 576 c 1,6,7
 128 576 128 576 256 576 c 1,8,9
 256 555 256 555 256 512 c 1,10,11
 277 512 277 512 320 512 c 1,12,13
 320 533 320 533 320 576 c 1,14,15
 341 576 341 576 384 576 c 1,16,17
 384 512 384 512 384 384 c 1,18,19
 405 384 405 384 448 384 c 1,20,21
 448 341 448 341 448 256 c 1,22,23
 405 256 405 256 320 256 c 1,24,25
 320 277 320 277 320 320 c 1,26,27
 299 320 299 320 256 320 c 1,28,29
 256 341 256 341 256 384 c 1,30,31
 235 384 235 384 192 384 c 1,32,33
 192 363 192 363 192 320 c 1,34,35
 171 320 171 320 128 320 c 1,36,37
 128 256 128 256 128 128 c 1,38,39
 149 128 149 128 192 128 c 1,40,41
 192 107 192 107 192 64 c 1,42,43
 299 64 299 64 512 64 c 1,44,45
 512 43 512 43 512 0 c 1,46,47
 491 0 491 0 448 0 c 1,48,49
 448 -21 448 -21 448 -64 c 1,50,51
 363 -64 363 -64 192 -64 c 1,52,53
 192 -43 192 -43 192 0 c 1,54,55
 171 0 171 0 128 0 c 1,56,57
 128 21 128 21 128 64 c 1,58,59
 107 64 107 64 64 64 c 1,60,61
 64 85 64 85 64 128 c 1,62,63
 43 128 43 128 0 128 c 1,0,1
EndSplineSet
EndChar

StartChar: D
Encoding: 68 68 17
Width: 576
GlyphClass: 2
Flags: W
LayerCount: 2
Fore
SplineSet
0 384 m 1,0,1
 0 469 0 469 0 640 c 1,2,3
 21 640 21 640 64 640 c 1,4,5
 64 619 64 619 64 576 c 1,6,7
 85 576 85 576 128 576 c 1,8,9
 128 597 128 597 128 640 c 1,10,11
 213 640 213 640 384 640 c 1,12,13
 384 619 384 619 384 576 c 1,14,15
 405 576 405 576 448 576 c 1,16,17
 448 533 448 533 448 448 c 1,18,19
 469 448 469 448 512 448 c 1,20,21
 512 320 512 320 512 64 c 1,22,23
 491 64 491 64 448 64 c 1,24,25
 448 43 448 43 448 0 c 1,26,27
 341 0 341 0 128 0 c 1,28,29
 128 21 128 21 128 64 c 1,30,31
 149 64 149 64 192 64 c 1,32,33
 192 128 192 128 192 256 c 1,34,35
 171 256 171 256 128 256 c 1,36,37
 128 299 128 299 128 384 c 1,38,39
 85 384 85 384 0 384 c 1,0,1
256 64 m 1,40,41
 277 64 277 64 320 64 c 1,42,43
 320 85 320 85 320 128 c 1,44,45
 341 128 341 128 384 128 c 1,46,47
 384 213 384 213 384 384 c 1,48,49
 341 384 341 384 256 384 c 1,50,51
 256 277 256 277 256 64 c 1,40,41
EndSplineSet
EndChar

StartChar: E
Encoding: 69 69 18
Width: 704
GlyphClass: 2
Flags: W
LayerCount: 2
Fore
SplineSet
0 384 m 1,0,1
 0 427 0 427 0 512 c 1,2,3
 128 512 128 512 384 512 c 1,4,5
 384 533 384 533 384 576 c 1,6,7
 427 576 427 576 512 576 c 1,8,9
 512 512 512 512 512 384 c 1,10,11
 469 384 469 384 384 384 c 1,12,13
 384 405 384 405 384 448 c 1,14,15
 341 448 341 448 256 448 c 1,16,17
 256 427 256 427 256 384 c 1,18,19
 277 384 277 384 320 384 c 1,20,21
 320 341 320 341 320 256 c 1,22,23
 341 256 341 256 384 256 c 1,24,25
 384 277 384 277 384 320 c 1,26,27
 427 320 427 320 512 320 c 1,28,29
 512 299 512 299 512 256 c 1,30,31
 491 256 491 256 448 256 c 1,32,33
 448 235 448 235 448 192 c 1,34,35
 427 192 427 192 384 192 c 1,36,37
 384 171 384 171 384 128 c 1,38,39
 448 128 448 128 576 128 c 1,40,41
 576 149 576 149 576 192 c 1,42,43
 597 192 597 192 640 192 c 1,44,45
 640 149 640 149 640 64 c 1,46,47
 619 64 619 64 576 64 c 1,48,49
 576 43 576 43 576 0 c 1,50,51
 512 0 512 0 384 0 c 1,52,53
 384 -21 384 -21 384 -64 c 1,54,55
 320 -64 320 -64 192 -64 c 1,56,57
 192 -43 192 -43 192 0 c 1,58,59
 171 0 171 0 128 0 c 1,60,61
 128 21 128 21 128 64 c 1,62,63
 149 64 149 64 192 64 c 1,64,65
 192 85 192 85 192 128 c 1,66,67
 213 128 213 128 256 128 c 1,68,69
 256 149 256 149 256 192 c 1,70,71
 235 192 235 192 192 192 c 1,72,73
 192 235 192 235 192 320 c 1,74,75
 149 320 149 320 64 320 c 1,76,77
 64 341 64 341 64 384 c 1,78,79
 43 384 43 384 0 384 c 1,0,1
EndSplineSet
EndChar

StartChar: F
Encoding: 70 70 19
Width: 640
GlyphClass: 2
Flags: W
LayerCount: 2
Fore
SplineSet
0 384 m 1,0,1
 0 427 0 427 0 512 c 1,2,3
 107 512 107 512 320 512 c 1,4,5
 320 533 320 533 320 576 c 1,6,7
 341 576 341 576 384 576 c 1,8,9
 384 597 384 597 384 640 c 1,10,11
 427 640 427 640 512 640 c 1,12,13
 512 619 512 619 512 576 c 1,14,15
 533 576 533 576 576 576 c 1,16,17
 576 533 576 533 576 448 c 1,18,19
 512 448 512 448 384 448 c 1,20,21
 384 427 384 427 384 384 c 1,22,23
 363 384 363 384 320 384 c 1,24,25
 320 363 320 363 320 320 c 1,26,27
 363 320 363 320 448 320 c 1,28,29
 448 299 448 299 448 256 c 1,30,31
 427 256 427 256 384 256 c 1,32,33
 384 235 384 235 384 192 c 1,34,35
 363 192 363 192 320 192 c 1,36,37
 320 149 320 149 320 64 c 1,38,39
 341 64 341 64 384 64 c 1,40,41
 384 21 384 21 384 -64 c 1,42,43
 341 -64 341 -64 256 -64 c 1,44,45
 256 21 256 21 256 192 c 1,46,47
 235 192 235 192 192 192 c 1,48,49
 192 235 192 235 192 320 c 1,50,51
 149 320 149 320 64 320 c 1,52,53
 64 341 64 341 64 384 c 1,54,55
 43 384 43 384 0 384 c 1,0,1
EndSplineSet
EndChar

StartChar: G
Encoding: 71 71 20
Width: 576
GlyphClass: 2
Flags: W
LayerCount: 2
Fore
SplineSet
0 192 m 1,0,1
 0 299 0 299 0 512 c 1,2,3
 43 512 43 512 128 512 c 1,4,5
 128 533 128 533 128 576 c 1,6,7
 192 576 192 576 320 576 c 1,8,9
 320 555 320 555 320 512 c 1,10,11
 341 512 341 512 384 512 c 1,12,13
 384 491 384 491 384 448 c 1,14,15
 405 448 405 448 448 448 c 1,16,17
 448 405 448 405 448 320 c 1,18,19
 405 320 405 320 320 320 c 1,20,21
 320 341 320 341 320 384 c 1,22,23
 277 384 277 384 192 384 c 1,24,25
 192 405 192 405 192 448 c 1,26,27
 171 448 171 448 128 448 c 1,28,29
 128 363 128 363 128 192 c 1,30,31
 149 192 149 192 192 192 c 1,32,33
 192 213 192 213 192 256 c 1,34,35
 299 256 299 256 512 256 c 1,36,37
 512 149 512 149 512 -64 c 1,38,39
 491 -64 491 -64 448 -64 c 1,40,41
 448 -43 448 -43 448 0 c 1,42,43
 341 0 341 0 128 0 c 1,44,45
 128 21 128 21 128 64 c 1,46,47
 107 64 107 64 64 64 c 1,48,49
 64 107 64 107 64 192 c 1,50,51
 43 192 43 192 0 192 c 1,0,1
192 128 m 1,52,53
 213 128 213 128 256 128 c 1,54,55
 256 107 256 107 256 64 c 1,56,57
 299 64 299 64 384 64 c 1,58,59
 384 85 384 85 384 128 c 1,60,61
 341 128 341 128 256 128 c 1,62,63
 256 149 256 149 256 192 c 1,64,65
 235 192 235 192 192 192 c 1,66,67
 192 171 192 171 192 128 c 1,52,53
EndSplineSet
EndChar

StartChar: H
Encoding: 72 72 21
Width: 576
GlyphClass: 2
Flags: W
LayerCount: 2
Fore
SplineSet
0 448 m 1,0,1
 0 491 0 491 0 576 c 1,2,3
 43 576 43 576 128 576 c 1,4,5
 128 533 128 533 128 448 c 1,6,7
 149 448 149 448 192 448 c 1,8,9
 192 405 192 405 192 320 c 1,10,11
 235 320 235 320 320 320 c 1,12,13
 320 363 320 363 320 448 c 1,14,15
 299 448 299 448 256 448 c 1,16,17
 256 491 256 491 256 576 c 1,18,19
 320 576 320 576 448 576 c 1,20,21
 448 448 448 448 448 192 c 1,22,23
 469 192 469 192 512 192 c 1,24,25
 512 128 512 128 512 0 c 1,26,27
 469 0 469 0 384 0 c 1,28,29
 384 43 384 43 384 128 c 1,30,31
 363 128 363 128 320 128 c 1,32,33
 320 149 320 149 320 192 c 1,34,35
 299 192 299 192 256 192 c 1,36,37
 256 171 256 171 256 128 c 1,38,39
 277 128 277 128 320 128 c 1,40,41
 320 85 320 85 320 0 c 1,42,43
 299 0 299 0 256 0 c 1,44,45
 256 21 256 21 256 64 c 1,46,47
 235 64 235 64 192 64 c 1,48,49
 192 107 192 107 192 192 c 1,50,51
 171 192 171 192 128 192 c 1,52,53
 128 235 128 235 128 320 c 1,54,55
 107 320 107 320 64 320 c 1,56,57
 64 363 64 363 64 448 c 1,58,59
 43 448 43 448 0 448 c 1,0,1
EndSplineSet
EndChar

StartChar: I
Encoding: 73 73 22
Width: 640
GlyphClass: 2
Flags: W
LayerCount: 2
Fore
SplineSet
0 448 m 1,0,1
 0 491 0 491 0 576 c 1,2,3
 171 576 171 576 512 576 c 1,4,5
 512 555 512 555 512 512 c 1,6,7
 533 512 533 512 576 512 c 1,8,9
 576 491 576 491 576 448 c 1,10,11
 512 448 512 448 384 448 c 1,12,13
 384 320 384 320 384 64 c 1,14,15
 448 64 448 64 576 64 c 1,16,17
 576 43 576 43 576 0 c 1,18,19
 512 0 512 0 384 0 c 1,20,21
 384 -21 384 -21 384 -64 c 1,22,23
 299 -64 299 -64 128 -64 c 1,24,25
 128 -21 128 -21 128 64 c 1,26,27
 192 64 192 64 320 64 c 1,28,29
 320 107 320 107 320 192 c 1,30,31
 299 192 299 192 256 192 c 1,32,33
 256 256 256 256 256 384 c 1,34,35
 213 384 213 384 128 384 c 1,36,37
 128 405 128 405 128 448 c 1,38,39
 85 448 85 448 0 448 c 1,0,1
EndSplineSet
EndChar

StartChar: J
Encoding: 74 74 23
Width: 512
GlyphClass: 2
Flags: W
LayerCount: 2
Fore
SplineSet
0 448 m 1,0,1
 0 469 0 469 0 512 c 1,2,3
 107 512 107 512 320 512 c 1,4,5
 320 533 320 533 320 576 c 1,6,7
 363 576 363 576 448 576 c 1,8,9
 448 533 448 533 448 448 c 1,10,11
 427 448 427 448 384 448 c 1,12,13
 384 405 384 405 384 320 c 1,14,15
 405 320 405 320 448 320 c 1,16,17
 448 213 448 213 448 0 c 1,18,19
 384 0 384 0 256 0 c 1,20,21
 256 21 256 21 256 64 c 1,22,23
 235 64 235 64 192 64 c 1,24,25
 192 85 192 85 192 128 c 1,26,27
 171 128 171 128 128 128 c 1,28,29
 128 171 128 171 128 256 c 1,30,31
 149 256 149 256 192 256 c 1,32,33
 192 235 192 235 192 192 c 1,34,35
 213 192 213 192 256 192 c 1,36,37
 256 171 256 171 256 128 c 1,38,39
 277 128 277 128 320 128 c 1,40,41
 320 192 320 192 320 320 c 1,42,43
 299 320 299 320 256 320 c 1,44,45
 256 341 256 341 256 384 c 1,46,47
 192 384 192 384 64 384 c 1,48,49
 64 405 64 405 64 448 c 1,50,51
 43 448 43 448 0 448 c 1,0,1
EndSplineSet
EndChar

StartChar: K
Encoding: 75 75 24
Width: 576
GlyphClass: 2
Flags: W
LayerCount: 2
Fore
SplineSet
0 448 m 1,0,1
 0 491 0 491 0 576 c 1,2,3
 21 576 21 576 64 576 c 1,4,5
 64 597 64 597 64 640 c 1,6,7
 85 640 85 640 128 640 c 1,8,9
 128 619 128 619 128 576 c 1,10,11
 149 576 149 576 192 576 c 1,12,13
 192 491 192 491 192 320 c 1,14,15
 213 320 213 320 256 320 c 1,16,17
 256 341 256 341 256 384 c 1,18,19
 277 384 277 384 320 384 c 1,20,21
 320 427 320 427 320 512 c 1,22,23
 341 512 341 512 384 512 c 1,24,25
 384 533 384 533 384 576 c 1,26,27
 405 576 405 576 448 576 c 1,28,29
 448 512 448 512 448 384 c 1,30,31
 427 384 427 384 384 384 c 1,32,33
 384 363 384 363 384 320 c 1,34,35
 363 320 363 320 320 320 c 1,36,37
 320 299 320 299 320 256 c 1,38,39
 341 256 341 256 384 256 c 1,40,41
 384 235 384 235 384 192 c 1,42,43
 405 192 405 192 448 192 c 1,44,45
 448 171 448 171 448 128 c 1,46,47
 469 128 469 128 512 128 c 1,48,49
 512 85 512 85 512 0 c 1,50,51
 469 0 469 0 384 0 c 1,52,53
 384 43 384 43 384 128 c 1,54,55
 363 128 363 128 320 128 c 1,56,57
 320 149 320 149 320 192 c 1,58,59
 277 192 277 192 192 192 c 1,60,61
 192 171 192 171 192 128 c 1,62,63
 213 128 213 128 256 128 c 1,64,65
 256 107 256 107 256 64 c 1,66,67
 277 64 277 64 320 64 c 1,68,69
 320 21 320 21 320 -64 c 1,70,71
 256 -64 256 -64 128 -64 c 1,72,73
 128 -43 128 -43 128 0 c 1,74,75
 107 0 107 0 64 0 c 1,76,77
 64 149 64 149 64 448 c 1,78,79
 43 448 43 448 0 448 c 1,0,1
EndSplineSet
EndChar

StartChar: L
Encoding: 76 76 25
Width: 576
GlyphClass: 2
Flags: W
LayerCount: 2
Fore
SplineSet
0 384 m 1,0,1
 0 427 0 427 0 512 c 1,2,3
 43 512 43 512 128 512 c 1,4,5
 128 491 128 491 128 448 c 1,6,7
 149 448 149 448 192 448 c 1,8,9
 192 384 192 384 192 256 c 1,10,11
 213 256 213 256 256 256 c 1,12,13
 256 213 256 213 256 128 c 1,14,15
 341 128 341 128 512 128 c 1,16,17
 512 85 512 85 512 0 c 1,18,19
 427 0 427 0 256 0 c 1,20,21
 256 -21 256 -21 256 -64 c 1,22,23
 235 -64 235 -64 192 -64 c 1,24,25
 192 -43 192 -43 192 0 c 1,26,27
 149 0 149 0 64 0 c 1,28,29
 64 43 64 43 64 128 c 1,30,31
 85 128 85 128 128 128 c 1,32,33
 128 192 128 192 128 320 c 1,34,35
 107 320 107 320 64 320 c 1,36,37
 64 341 64 341 64 384 c 1,38,39
 43 384 43 384 0 384 c 1,0,1
EndSplineSet
EndChar

StartChar: M
Encoding: 77 77 26
Width: 640
GlyphClass: 2
Flags: W
LayerCount: 2
Fore
SplineSet
0 448 m 1,0,1
 0 491 0 491 0 576 c 1,2,3
 21 576 21 576 64 576 c 1,4,5
 64 555 64 555 64 512 c 1,6,7
 107 512 107 512 192 512 c 1,8,9
 192 469 192 469 192 384 c 1,10,11
 213 384 213 384 256 384 c 1,12,13
 256 363 256 363 256 320 c 1,14,15
 277 320 277 320 320 320 c 1,16,17
 320 384 320 384 320 512 c 1,18,19
 341 512 341 512 384 512 c 1,20,21
 384 533 384 533 384 576 c 1,22,23
 427 576 427 576 512 576 c 1,24,25
 512 555 512 555 512 512 c 1,26,27
 533 512 533 512 576 512 c 1,28,29
 576 491 576 491 576 448 c 1,30,31
 555 448 555 448 512 448 c 1,32,33
 512 384 512 384 512 256 c 1,34,35
 533 256 533 256 576 256 c 1,36,37
 576 171 576 171 576 0 c 1,38,39
 555 0 555 0 512 0 c 1,40,41
 512 21 512 21 512 64 c 1,42,43
 491 64 491 64 448 64 c 1,44,45
 448 43 448 43 448 0 c 1,46,47
 427 0 427 0 384 0 c 1,48,49
 384 21 384 21 384 64 c 1,50,51
 363 64 363 64 320 64 c 1,52,53
 320 21 320 21 320 -64 c 1,54,55
 299 -64 299 -64 256 -64 c 1,56,57
 256 -43 256 -43 256 0 c 1,58,59
 235 0 235 0 192 0 c 1,60,61
 192 43 192 43 192 128 c 1,62,63
 171 128 171 128 128 128 c 1,64,65
 128 192 128 192 128 320 c 1,66,67
 107 320 107 320 64 320 c 1,68,69
 64 363 64 363 64 448 c 1,70,71
 43 448 43 448 0 448 c 1,0,1
EndSplineSet
EndChar

StartChar: N
Encoding: 78 78 27
Width: 576
GlyphClass: 2
Flags: W
LayerCount: 2
Fore
SplineSet
0 448 m 1,0,1
 0 469 0 469 0 512 c 1,2,3
 21 512 21 512 64 512 c 1,4,5
 64 533 64 533 64 576 c 1,6,7
 107 576 107 576 192 576 c 1,8,9
 192 533 192 533 192 448 c 1,10,11
 213 448 213 448 256 448 c 1,12,13
 256 405 256 405 256 320 c 1,14,15
 277 320 277 320 320 320 c 1,16,17
 320 299 320 299 320 256 c 1,18,19
 341 256 341 256 384 256 c 1,20,21
 384 363 384 363 384 576 c 1,22,23
 405 576 405 576 448 576 c 1,24,25
 448 555 448 555 448 512 c 1,26,27
 469 512 469 512 512 512 c 1,28,29
 512 341 512 341 512 0 c 1,30,31
 469 0 469 0 384 0 c 1,32,33
 384 21 384 21 384 64 c 1,34,35
 363 64 363 64 320 64 c 1,36,37
 320 21 320 21 320 -64 c 1,38,39
 277 -64 277 -64 192 -64 c 1,40,41
 192 0 192 0 192 128 c 1,42,43
 171 128 171 128 128 128 c 1,44,45
 128 192 128 192 128 320 c 1,46,47
 107 320 107 320 64 320 c 1,48,49
 64 363 64 363 64 448 c 1,50,51
 43 448 43 448 0 448 c 1,0,1
EndSplineSet
EndChar

StartChar: O
Encoding: 79 79 28
Width: 576
GlyphClass: 2
Flags: W
LayerCount: 2
Fore
SplineSet
0 128 m 1,0,1
 0 192 0 192 0 320 c 1,2,3
 21 320 21 320 64 320 c 1,4,5
 64 341 64 341 64 384 c 1,6,7
 85 384 85 384 128 384 c 1,8,9
 128 405 128 405 128 448 c 1,10,11
 149 448 149 448 192 448 c 1,12,13
 192 469 192 469 192 512 c 1,14,15
 213 512 213 512 256 512 c 1,16,17
 256 533 256 533 256 576 c 1,18,19
 277 576 277 576 320 576 c 1,20,21
 320 555 320 555 320 512 c 1,22,23
 341 512 341 512 384 512 c 1,24,25
 384 491 384 491 384 448 c 1,26,27
 405 448 405 448 448 448 c 1,28,29
 448 384 448 384 448 256 c 1,30,31
 427 256 427 256 384 256 c 1,32,33
 384 277 384 277 384 320 c 1,34,35
 341 320 341 320 256 320 c 1,36,37
 256 299 256 299 256 256 c 1,38,39
 235 256 235 256 192 256 c 1,40,41
 192 213 192 213 192 128 c 1,42,43
 277 128 277 128 448 128 c 1,44,45
 448 171 448 171 448 256 c 1,46,47
 469 256 469 256 512 256 c 1,48,49
 512 192 512 192 512 64 c 1,50,51
 491 64 491 64 448 64 c 1,52,53
 448 43 448 43 448 0 c 1,54,55
 341 0 341 0 128 0 c 1,56,57
 128 21 128 21 128 64 c 1,58,59
 107 64 107 64 64 64 c 1,60,61
 64 85 64 85 64 128 c 1,62,63
 43 128 43 128 0 128 c 1,0,1
EndSplineSet
EndChar

StartChar: P
Encoding: 80 80 29
Width: 640
GlyphClass: 2
Flags: W
LayerCount: 2
Fore
SplineSet
0 384 m 1,0,1
 0 405 0 405 0 448 c 1,2,3
 43 448 43 448 128 448 c 1,4,5
 128 469 128 469 128 512 c 1,6,7
 171 512 171 512 256 512 c 1,8,9
 256 533 256 533 256 576 c 1,10,11
 341 576 341 576 512 576 c 1,12,13
 512 555 512 555 512 512 c 1,14,15
 533 512 533 512 576 512 c 1,16,17
 576 427 576 427 576 256 c 1,18,19
 555 256 555 256 512 256 c 1,20,21
 512 235 512 235 512 192 c 1,22,23
 469 192 469 192 384 192 c 1,24,25
 384 171 384 171 384 128 c 1,26,27
 363 128 363 128 320 128 c 1,28,29
 320 64 320 64 320 -64 c 1,30,31
 299 -64 299 -64 256 -64 c 1,32,33
 256 -21 256 -21 256 64 c 1,34,35
 235 64 235 64 192 64 c 1,36,37
 192 128 192 128 192 256 c 1,38,39
 171 256 171 256 128 256 c 1,40,41
 128 277 128 277 128 320 c 1,42,43
 107 320 107 320 64 320 c 1,44,45
 64 341 64 341 64 384 c 1,46,47
 43 384 43 384 0 384 c 1,0,1
256 320 m 1,48,49
 299 320 299 320 384 320 c 1,50,51
 384 341 384 341 384 384 c 1,52,53
 405 384 405 384 448 384 c 1,54,55
 448 405 448 405 448 448 c 1,56,57
 405 448 405 448 320 448 c 1,58,59
 320 427 320 427 320 384 c 1,60,61
 299 384 299 384 256 384 c 1,62,63
 256 363 256 363 256 320 c 1,48,49
EndSplineSet
EndChar

StartChar: Q
Encoding: 81 81 30
Width: 640
GlyphClass: 2
Flags: W
LayerCount: 2
Fore
SplineSet
0 128 m 1,0,1
 0 213 0 213 0 384 c 1,2,3
 21 384 21 384 64 384 c 1,4,5
 64 405 64 405 64 448 c 1,6,7
 85 448 85 448 128 448 c 1,8,9
 128 469 128 469 128 512 c 1,10,11
 149 512 149 512 192 512 c 1,12,13
 192 533 192 533 192 576 c 1,14,15
 213 576 213 576 256 576 c 1,16,17
 256 555 256 555 256 512 c 1,18,19
 277 512 277 512 320 512 c 1,20,21
 320 491 320 491 320 448 c 1,22,23
 341 448 341 448 384 448 c 1,24,25
 384 427 384 427 384 384 c 1,26,27
 405 384 405 384 448 384 c 1,28,29
 448 341 448 341 448 256 c 1,30,31
 469 256 469 256 512 256 c 1,32,33
 512 213 512 213 512 128 c 1,34,35
 491 128 491 128 448 128 c 1,36,37
 448 171 448 171 448 256 c 1,38,39
 427 256 427 256 384 256 c 1,40,41
 384 277 384 277 384 320 c 1,42,43
 320 320 320 320 192 320 c 1,44,45
 192 256 192 256 192 128 c 1,46,47
 213 128 213 128 256 128 c 1,48,49
 256 149 256 149 256 192 c 1,50,51
 277 192 277 192 320 192 c 1,52,53
 320 171 320 171 320 128 c 1,54,55
 363 128 363 128 448 128 c 1,56,57
 448 85 448 85 448 0 c 1,58,59
 491 0 491 0 576 0 c 1,60,61
 576 -21 576 -21 576 -64 c 1,62,63
 491 -64 491 -64 320 -64 c 1,64,65
 320 -43 320 -43 320 0 c 1,66,67
 256 0 256 0 128 0 c 1,68,69
 128 21 128 21 128 64 c 1,70,71
 107 64 107 64 64 64 c 1,72,73
 64 85 64 85 64 128 c 1,74,75
 43 128 43 128 0 128 c 1,0,1
EndSplineSet
EndChar

StartChar: R
Encoding: 82 82 31
Width: 704
GlyphClass: 2
Flags: W
LayerCount: 2
Fore
SplineSet
0 448 m 1,0,1
 0 491 0 491 0 576 c 1,2,3
 149 576 149 576 448 576 c 1,4,5
 448 555 448 555 448 512 c 1,6,7
 469 512 469 512 512 512 c 1,8,9
 512 427 512 427 512 256 c 1,10,11
 491 256 491 256 448 256 c 1,12,13
 448 192 448 192 448 64 c 1,14,15
 469 64 469 64 512 64 c 1,16,17
 512 43 512 43 512 0 c 1,18,19
 555 0 555 0 640 0 c 1,20,21
 640 -43 640 -43 640 -128 c 1,22,23
 597 -128 597 -128 512 -128 c 1,24,25
 512 -107 512 -107 512 -64 c 1,26,27
 491 -64 491 -64 448 -64 c 1,28,29
 448 -43 448 -43 448 0 c 1,30,31
 427 0 427 0 384 0 c 1,32,33
 384 21 384 21 384 64 c 1,34,35
 363 64 363 64 320 64 c 1,36,37
 320 85 320 85 320 128 c 1,38,39
 299 128 299 128 256 128 c 1,40,41
 256 85 256 85 256 0 c 1,42,43
 235 0 235 0 192 0 c 1,44,45
 192 85 192 85 192 256 c 1,46,47
 171 256 171 256 128 256 c 1,48,49
 128 277 128 277 128 320 c 1,50,51
 107 320 107 320 64 320 c 1,52,53
 64 363 64 363 64 448 c 1,54,55
 43 448 43 448 0 448 c 1,0,1
192 320 m 1,56,57
 213 320 213 320 256 320 c 1,58,59
 256 299 256 299 256 256 c 1,60,61
 277 256 277 256 320 256 c 1,62,63
 320 277 320 277 320 320 c 1,64,65
 341 320 341 320 384 320 c 1,66,67
 384 341 384 341 384 384 c 1,68,69
 405 384 405 384 448 384 c 1,70,71
 448 405 448 405 448 448 c 1,72,73
 384 448 384 448 256 448 c 1,74,75
 256 427 256 427 256 384 c 1,76,77
 235 384 235 384 192 384 c 1,78,79
 192 363 192 363 192 320 c 1,56,57
EndSplineSet
EndChar

StartChar: S
Encoding: 83 83 32
Width: 640
GlyphClass: 2
Flags: W
LayerCount: 2
Fore
SplineSet
0 320 m 1,0,1
 0 384 0 384 0 512 c 1,2,3
 21 512 21 512 64 512 c 1,4,5
 64 533 64 533 64 576 c 1,6,7
 85 576 85 576 128 576 c 1,8,9
 128 597 128 597 128 640 c 1,10,11
 192 640 192 640 320 640 c 1,12,13
 320 619 320 619 320 576 c 1,14,15
 341 576 341 576 384 576 c 1,16,17
 384 597 384 597 384 640 c 1,18,19
 405 640 405 640 448 640 c 1,20,21
 448 619 448 619 448 576 c 1,22,23
 469 576 469 576 512 576 c 1,24,25
 512 512 512 512 512 384 c 1,26,27
 469 384 469 384 384 384 c 1,28,29
 384 405 384 405 384 448 c 1,30,31
 320 448 320 448 192 448 c 1,32,33
 192 405 192 405 192 320 c 1,34,35
 299 320 299 320 512 320 c 1,36,37
 512 299 512 299 512 256 c 1,38,39
 533 256 533 256 576 256 c 1,40,41
 576 171 576 171 576 0 c 1,42,43
 491 0 491 0 320 0 c 1,44,45
 320 -21 320 -21 320 -64 c 1,46,47
 256 -64 256 -64 128 -64 c 1,48,49
 128 0 128 0 128 128 c 1,50,51
 149 128 149 128 192 128 c 1,52,53
 192 149 192 149 192 192 c 1,54,55
 213 192 213 192 256 192 c 1,56,57
 256 171 256 171 256 128 c 1,58,59
 277 128 277 128 320 128 c 1,60,61
 320 107 320 107 320 64 c 1,62,63
 363 64 363 64 448 64 c 1,64,65
 448 107 448 107 448 192 c 1,66,67
 405 192 405 192 320 192 c 1,68,69
 320 213 320 213 320 256 c 1,70,71
 235 256 235 256 64 256 c 1,72,73
 64 277 64 277 64 320 c 1,74,75
 43 320 43 320 0 320 c 1,0,1
EndSplineSet
EndChar

StartChar: T
Encoding: 84 84 33
Width: 768
GlyphClass: 2
Flags: W
LayerCount: 2
Fore
SplineSet
0 512 m 1,0,1
 0 555 0 555 0 640 c 1,2,3
 21 640 21 640 64 640 c 1,4,5
 64 619 64 619 64 576 c 1,6,7
 171 576 171 576 384 576 c 1,8,9
 384 555 384 555 384 512 c 1,10,11
 469 512 469 512 640 512 c 1,12,13
 640 491 640 491 640 448 c 1,14,15
 661 448 661 448 704 448 c 1,16,17
 704 427 704 427 704 384 c 1,18,19
 640 384 640 384 512 384 c 1,20,21
 512 363 512 363 512 320 c 1,22,23
 491 320 491 320 448 320 c 1,24,25
 448 256 448 256 448 128 c 1,26,27
 469 128 469 128 512 128 c 1,28,29
 512 64 512 64 512 -64 c 1,30,31
 491 -64 491 -64 448 -64 c 1,32,33
 448 -43 448 -43 448 0 c 1,34,35
 427 0 427 0 384 0 c 1,36,37
 384 85 384 85 384 256 c 1,38,39
 363 256 363 256 320 256 c 1,40,41
 320 299 320 299 320 384 c 1,42,43
 256 384 256 384 128 384 c 1,44,45
 128 405 128 405 128 448 c 1,46,47
 107 448 107 448 64 448 c 1,48,49
 64 469 64 469 64 512 c 1,50,51
 43 512 43 512 0 512 c 1,0,1
EndSplineSet
EndChar

StartChar: U
Encoding: 85 85 34
Width: 640
GlyphClass: 2
Flags: W
LayerCount: 2
Fore
SplineSet
0 384 m 1,0,1
 0 427 0 427 0 512 c 1,2,3
 21 512 21 512 64 512 c 1,4,5
 64 533 64 533 64 576 c 1,6,7
 107 576 107 576 192 576 c 1,8,9
 192 469 192 469 192 256 c 1,10,11
 213 256 213 256 256 256 c 1,12,13
 256 213 256 213 256 128 c 1,14,15
 277 128 277 128 320 128 c 1,16,17
 320 107 320 107 320 64 c 1,18,19
 363 64 363 64 448 64 c 1,20,21
 448 128 448 128 448 256 c 1,22,23
 427 256 427 256 384 256 c 1,24,25
 384 341 384 341 384 512 c 1,26,27
 405 512 405 512 448 512 c 1,28,29
 448 491 448 491 448 448 c 1,30,31
 469 448 469 448 512 448 c 1,32,33
 512 384 512 384 512 256 c 1,34,35
 533 256 533 256 576 256 c 1,36,37
 576 171 576 171 576 0 c 1,38,39
 555 0 555 0 512 0 c 1,40,41
 512 -21 512 -21 512 -64 c 1,42,43
 427 -64 427 -64 256 -64 c 1,44,45
 256 -43 256 -43 256 0 c 1,46,47
 235 0 235 0 192 0 c 1,48,49
 192 43 192 43 192 128 c 1,50,51
 171 128 171 128 128 128 c 1,52,53
 128 171 128 171 128 256 c 1,54,55
 107 256 107 256 64 256 c 1,56,57
 64 299 64 299 64 384 c 1,58,59
 43 384 43 384 0 384 c 1,0,1
EndSplineSet
EndChar

StartChar: V
Encoding: 86 86 35
Width: 640
GlyphClass: 2
Flags: W
LayerCount: 2
Fore
SplineSet
0 448 m 1,0,1
 0 512 0 512 0 640 c 1,2,3
 43 640 43 640 128 640 c 1,4,5
 128 619 128 619 128 576 c 1,6,7
 149 576 149 576 192 576 c 1,8,9
 192 555 192 555 192 512 c 1,10,11
 213 512 213 512 256 512 c 1,12,13
 256 491 256 491 256 448 c 1,14,15
 235 448 235 448 192 448 c 1,16,17
 192 405 192 405 192 320 c 1,18,19
 213 320 213 320 256 320 c 1,20,21
 256 277 256 277 256 192 c 1,22,23
 277 192 277 192 320 192 c 1,24,25
 320 277 320 277 320 448 c 1,26,27
 341 448 341 448 384 448 c 1,28,29
 384 469 384 469 384 512 c 1,30,31
 405 512 405 512 448 512 c 1,32,33
 448 533 448 533 448 576 c 1,34,35
 491 576 491 576 576 576 c 1,36,37
 576 533 576 533 576 448 c 1,38,39
 555 448 555 448 512 448 c 1,40,41
 512 405 512 405 512 320 c 1,42,43
 491 320 491 320 448 320 c 1,44,45
 448 213 448 213 448 0 c 1,46,47
 469 0 469 0 512 0 c 1,48,49
 512 -21 512 -21 512 -64 c 1,50,51
 469 -64 469 -64 384 -64 c 1,52,53
 384 -43 384 -43 384 0 c 1,54,55
 363 0 363 0 320 0 c 1,56,57
 320 21 320 21 320 64 c 1,58,59
 299 64 299 64 256 64 c 1,60,61
 256 85 256 85 256 128 c 1,62,63
 235 128 235 128 192 128 c 1,64,65
 192 149 192 149 192 192 c 1,66,67
 171 192 171 192 128 192 c 1,68,69
 128 235 128 235 128 320 c 1,70,71
 107 320 107 320 64 320 c 1,72,73
 64 363 64 363 64 448 c 1,74,75
 43 448 43 448 0 448 c 1,0,1
EndSplineSet
EndChar

StartChar: W
Encoding: 87 87 36
Width: 768
GlyphClass: 2
Flags: W
LayerCount: 2
Fore
SplineSet
0 512 m 1,0,1
 0 555 0 555 0 640 c 1,2,3
 64 640 64 640 192 640 c 1,4,5
 192 619 192 619 192 576 c 1,6,7
 213 576 213 576 256 576 c 1,8,9
 256 469 256 469 256 256 c 1,10,11
 277 256 277 256 320 256 c 1,12,13
 320 213 320 213 320 128 c 1,14,15
 341 128 341 128 384 128 c 1,16,17
 384 235 384 235 384 448 c 1,18,19
 405 448 405 448 448 448 c 1,20,21
 448 427 448 427 448 384 c 1,22,23
 469 384 469 384 512 384 c 1,24,25
 512 341 512 341 512 256 c 1,26,27
 533 256 533 256 576 256 c 1,28,29
 576 320 576 320 576 448 c 1,30,31
 619 448 619 448 704 448 c 1,32,33
 704 405 704 405 704 320 c 1,34,35
 683 320 683 320 640 320 c 1,36,37
 640 213 640 213 640 0 c 1,38,39
 619 0 619 0 576 0 c 1,40,41
 576 21 576 21 576 64 c 1,42,43
 555 64 555 64 512 64 c 1,44,45
 512 85 512 85 512 128 c 1,46,47
 491 128 491 128 448 128 c 1,48,49
 448 64 448 64 448 -64 c 1,50,51
 427 -64 427 -64 384 -64 c 1,52,53
 384 -43 384 -43 384 0 c 1,54,55
 363 0 363 0 320 0 c 1,56,57
 320 21 320 21 320 64 c 1,58,59
 299 64 299 64 256 64 c 1,60,61
 256 85 256 85 256 128 c 1,62,63
 235 128 235 128 192 128 c 1,64,65
 192 171 192 171 192 256 c 1,66,67
 171 256 171 256 128 256 c 1,68,69
 128 299 128 299 128 384 c 1,70,71
 107 384 107 384 64 384 c 1,72,73
 64 427 64 427 64 512 c 1,74,75
 43 512 43 512 0 512 c 1,0,1
EndSplineSet
EndChar

StartChar: X
Encoding: 88 88 37
Width: 832
GlyphClass: 2
Flags: W
LayerCount: 2
Fore
SplineSet
0 0 m 1,0,1
 0 64 0 64 0 192 c 1,2,3
 43 192 43 192 128 192 c 1,4,5
 128 213 128 213 128 256 c 1,6,7
 149 256 149 256 192 256 c 1,8,9
 192 277 192 277 192 320 c 1,10,11
 171 320 171 320 128 320 c 1,12,13
 128 363 128 363 128 448 c 1,14,15
 107 448 107 448 64 448 c 1,16,17
 64 469 64 469 64 512 c 1,18,19
 43 512 43 512 0 512 c 1,20,21
 0 533 0 533 0 576 c 1,22,23
 64 576 64 576 192 576 c 1,24,25
 192 512 192 512 192 384 c 1,26,27
 213 384 213 384 256 384 c 1,28,29
 256 363 256 363 256 320 c 1,30,31
 277 320 277 320 320 320 c 1,32,33
 320 363 320 363 320 448 c 1,34,35
 341 448 341 448 384 448 c 1,36,37
 384 533 384 533 384 704 c 1,38,39
 427 704 427 704 512 704 c 1,40,41
 512 725 512 725 512 768 c 1,42,43
 533 768 533 768 576 768 c 1,44,45
 576 704 576 704 576 576 c 1,46,47
 555 576 555 576 512 576 c 1,48,49
 512 533 512 533 512 448 c 1,50,51
 491 448 491 448 448 448 c 1,52,53
 448 405 448 405 448 320 c 1,54,55
 427 320 427 320 384 320 c 1,56,57
 384 277 384 277 384 192 c 1,58,59
 405 192 405 192 448 192 c 1,60,61
 448 171 448 171 448 128 c 1,62,63
 491 128 491 128 576 128 c 1,64,65
 576 107 576 107 576 64 c 1,66,67
 640 64 640 64 768 64 c 1,68,69
 768 21 768 21 768 -64 c 1,70,71
 747 -64 747 -64 704 -64 c 1,72,73
 704 -85 704 -85 704 -128 c 1,74,75
 661 -128 661 -128 576 -128 c 1,76,77
 576 -107 576 -107 576 -64 c 1,78,79
 533 -64 533 -64 448 -64 c 1,80,81
 448 -43 448 -43 448 0 c 1,82,83
 427 0 427 0 384 0 c 1,84,85
 384 21 384 21 384 64 c 1,86,87
 363 64 363 64 320 64 c 1,88,89
 320 107 320 107 320 192 c 1,90,91
 299 192 299 192 256 192 c 1,92,93
 256 171 256 171 256 128 c 1,94,95
 235 128 235 128 192 128 c 1,96,97
 192 107 192 107 192 64 c 1,98,99
 171 64 171 64 128 64 c 1,100,101
 128 43 128 43 128 0 c 1,102,103
 85 0 85 0 0 0 c 1,0,1
EndSplineSet
EndChar

StartChar: Y
Encoding: 89 89 38
Width: 576
GlyphClass: 2
Flags: W
LayerCount: 2
Fore
SplineSet
0 448 m 1,0,1
 0 491 0 491 0 576 c 1,2,3
 43 576 43 576 128 576 c 1,4,5
 128 533 128 533 128 448 c 1,6,7
 149 448 149 448 192 448 c 1,8,9
 192 427 192 427 192 384 c 1,10,11
 213 384 213 384 256 384 c 1,12,13
 256 363 256 363 256 320 c 1,14,15
 277 320 277 320 320 320 c 1,16,17
 320 341 320 341 320 384 c 1,18,19
 341 384 341 384 384 384 c 1,20,21
 384 427 384 427 384 512 c 1,22,23
 405 512 405 512 448 512 c 1,24,25
 448 533 448 533 448 576 c 1,26,27
 469 576 469 576 512 576 c 1,28,29
 512 491 512 491 512 320 c 1,30,31
 491 320 491 320 448 320 c 1,32,33
 448 299 448 299 448 256 c 1,34,35
 427 256 427 256 384 256 c 1,36,37
 384 149 384 149 384 -64 c 1,38,39
 363 -64 363 -64 320 -64 c 1,40,41
 320 -43 320 -43 320 0 c 1,42,43
 299 0 299 0 256 0 c 1,44,45
 256 64 256 64 256 192 c 1,46,47
 235 192 235 192 192 192 c 1,48,49
 192 213 192 213 192 256 c 1,50,51
 171 256 171 256 128 256 c 1,52,53
 128 299 128 299 128 384 c 1,54,55
 107 384 107 384 64 384 c 1,56,57
 64 405 64 405 64 448 c 1,58,59
 43 448 43 448 0 448 c 1,0,1
EndSplineSet
EndChar

StartChar: Z
Encoding: 90 90 39
Width: 704
GlyphClass: 2
Flags: W
LayerCount: 2
Fore
SplineSet
0 448 m 1,0,1
 0 491 0 491 0 576 c 1,2,3
 21 576 21 576 64 576 c 1,4,5
 64 555 64 555 64 512 c 1,6,7
 149 512 149 512 320 512 c 1,8,9
 320 533 320 533 320 576 c 1,10,11
 363 576 363 576 448 576 c 1,12,13
 448 555 448 555 448 512 c 1,14,15
 469 512 469 512 512 512 c 1,16,17
 512 491 512 491 512 448 c 1,18,19
 491 448 491 448 448 448 c 1,20,21
 448 427 448 427 448 384 c 1,22,23
 427 384 427 384 384 384 c 1,24,25
 384 320 384 320 384 192 c 1,26,27
 363 192 363 192 320 192 c 1,28,29
 320 171 320 171 320 128 c 1,30,31
 363 128 363 128 448 128 c 1,32,33
 448 149 448 149 448 192 c 1,34,35
 469 192 469 192 512 192 c 1,36,37
 512 171 512 171 512 128 c 1,38,39
 533 128 533 128 576 128 c 1,40,41
 576 107 576 107 576 64 c 1,42,43
 597 64 597 64 640 64 c 1,44,45
 640 43 640 43 640 0 c 1,46,47
 533 0 533 0 320 0 c 1,48,49
 320 -21 320 -21 320 -64 c 1,50,51
 256 -64 256 -64 128 -64 c 1,52,53
 128 0 128 0 128 128 c 1,54,55
 171 128 171 128 256 128 c 1,56,57
 256 149 256 149 256 192 c 1,58,59
 235 192 235 192 192 192 c 1,60,61
 192 235 192 235 192 320 c 1,62,63
 149 320 149 320 64 320 c 1,64,65
 64 363 64 363 64 448 c 1,66,67
 43 448 43 448 0 448 c 1,0,1
192 320 m 1,68,69
 235 320 235 320 320 320 c 1,70,71
 320 341 320 341 320 384 c 1,72,73
 277 384 277 384 192 384 c 1,74,75
 192 363 192 363 192 320 c 1,68,69
EndSplineSet
EndChar
